<svg width="24" height="24" viewBox="0 0 24 24" fill="none" xmlns="http://www.w3.org/2000/svg">
<path fill-rule="evenodd" clip-rule="evenodd" d="M5 1C3.93913 1 2.92172 1.42143 2.17157 2.17157C1.42143 2.92172 1 3.93913 1 5V19C1 20.0609 1.42143 21.0783 2.17157 21.8284C2.92172 22.5786 3.93913 23 5 23H19C20.0609 23 21.0783 22.5786 21.8284 21.8284C22.5786 21.0783 23 20.0609 23 19V5C23 3.93913 22.5786 2.92172 21.8284 2.17157C21.0783 1.42143 20.0609 1 19 1H5ZM4 15.182V9H5.09V9.693C5.572 9.328 6.232 9 7.092 9C7.489 9 7.955 9.115 8.338 9.357C8.478 9.445 8.614 9.557 8.732 9.69C9.29981 9.24096 10.0031 8.99772 10.727 9C11.124 9 11.591 9.115 11.974 9.357C12.364 9.604 12.727 10.028 12.727 10.637V15.182H11.637V10.636C11.637 10.517 11.576 10.396 11.391 10.279C11.1906 10.1577 10.9612 10.0927 10.727 10.091C9.981 10.091 9.471 10.448 9.091 10.822V15.182H8V10.636C8 10.517 7.94 10.396 7.755 10.279C7.55465 10.1577 7.32523 10.0927 7.091 10.091C6.111 10.091 5.577 10.681 5.161 11.14L5.091 11.217V15.182H4ZM14.984 12.636H20V12.091C19.9998 11.3606 19.7409 10.6539 19.2692 10.0963C18.7975 9.5387 18.1435 9.16618 17.4233 9.04486C16.7031 8.92354 15.9631 9.06126 15.3348 9.43358C14.7065 9.80591 14.2303 10.3888 13.9908 11.0788C13.7513 11.7687 13.764 12.5213 14.0266 13.2028C14.2892 13.8843 14.7847 14.4508 15.4252 14.8018C16.0657 15.1528 16.8098 15.2655 17.5256 15.12C18.2413 14.9745 18.8823 14.5802 19.335 14.007L18.479 13.33C18.2507 13.6195 17.9468 13.8403 17.6009 13.968C17.255 14.0956 16.8806 14.1252 16.519 14.0533C16.1573 13.9815 15.8226 13.8112 15.5517 13.561C15.2808 13.3109 15.0844 12.9908 14.984 12.636ZM16.909 10.091C16.4735 10.0908 16.0498 10.2329 15.7024 10.4955C15.3549 10.7581 15.1027 11.127 14.984 11.546H18.834C18.7153 11.127 18.4631 10.7581 18.1156 10.4955C17.7682 10.2329 17.3445 10.0908 16.909 10.091Z" fill="white"/>
</svg>
