<svg width="24" height="24" viewBox="0 0 24 24" fill="none" xmlns="http://www.w3.org/2000/svg">
<path fill-rule="evenodd" clip-rule="evenodd" d="M14.9371 5.633C13.9006 5.573 12.2801 5.513 9.84856 5.502C9.86856 4.92733 9.88889 4.42467 9.90956 3.994C9.98356 2.437 11.0836 1.0975 12.7131 0.927C13.6431 0.8295 14.8931 0.75 16.5001 0.75C18.1071 0.75 19.3576 0.8295 20.2871 0.927C21.9171 1.0975 23.0171 2.437 23.0906 3.994C23.1386 5.0085 23.1891 6.4145 23.2206 8.25H18.2496C17.8221 6.781 16.5211 5.7245 14.9371 5.633ZM14.5001 3.25C14.699 3.25 14.8897 3.32902 15.0304 3.46967C15.171 3.61032 15.2501 3.80109 15.2501 4C15.2501 4.19891 15.171 4.38968 15.0304 4.53033C14.8897 4.67098 14.699 4.75 14.5001 4.75H14.0001C13.8011 4.75 13.6104 4.67098 13.4697 4.53033C13.3291 4.38968 13.2501 4.19891 13.2501 4C13.2501 3.80109 13.3291 3.61032 13.4697 3.46967C13.6104 3.32902 13.8011 3.25 14.0001 3.25H14.5001ZM17.7501 4C17.7501 3.80109 17.8291 3.61032 17.9697 3.46967C18.1104 3.32902 18.3011 3.25 18.5001 3.25H19.0001C19.199 3.25 19.3897 3.32902 19.5304 3.46967C19.671 3.61032 19.7501 3.80109 19.7501 4C19.7501 4.19891 19.671 4.38968 19.5304 4.53033C19.3897 4.67098 19.199 4.75 19.0001 4.75H18.5001C18.3011 4.75 18.1104 4.67098 17.9697 4.53033C17.8291 4.38968 17.7501 4.19891 17.7501 4ZM18.4271 9.75H23.2396C23.2466 10.4487 23.2501 11.1987 23.2501 12C23.2501 15.7695 23.1676 18.3865 23.0906 20.006C23.0166 21.563 21.9166 22.9025 20.2871 23.073C19.3576 23.1705 18.1071 23.25 16.5001 23.25C15.9077 23.2493 15.3632 23.2395 14.8666 23.2205C14.9551 22.9906 15.0003 22.7463 15.0001 22.5C15.0001 22.1908 14.9284 21.8858 14.7906 21.6089C14.6528 21.3321 14.4527 21.091 14.2061 20.9045C14.4761 20.8922 14.7197 20.8797 14.9371 20.867C16.8046 20.759 18.2786 19.3095 18.3916 17.425C18.4481 16.484 18.5001 15.5585 18.5001 13.5C18.5001 11.8885 18.4681 10.6625 18.4271 9.75ZM9.00006 6.75C11.8911 6.75 13.7411 6.813 14.8636 6.875C16.1011 6.944 17.0711 7.8865 17.1471 9.136C17.2011 10.021 17.2501 11.348 17.2501 13.25C17.2501 14.23 17.2371 15.0575 17.2171 15.75H0.78306C0.760085 14.9169 0.749084 14.0834 0.75006 13.25C0.75006 11.348 0.79906 10.0215 0.85306 9.136C0.92906 7.8865 1.89906 6.944 3.13656 6.8755C4.25906 6.813 6.10906 6.75 9.00006 6.75ZM0.85306 17.364L0.84606 17.25H17.1541L17.1471 17.364C17.0711 18.6135 16.1016 19.556 14.8636 19.6245C14.0116 19.672 12.7396 19.7195 10.9111 19.7395L11.0251 20.655C11.0628 20.9574 11.2098 21.2355 11.4382 21.4371C11.6666 21.6388 11.9609 21.75 12.2656 21.75H13.0001C13.199 21.75 13.3897 21.829 13.5304 21.9697C13.671 22.1103 13.7501 22.3011 13.7501 22.5C13.7501 22.6989 13.671 22.8897 13.5304 23.0303C13.3897 23.171 13.199 23.25 13.0001 23.25H5.00006C4.80115 23.25 4.61038 23.171 4.46973 23.0303C4.32908 22.8897 4.25006 22.6989 4.25006 22.5C4.25006 22.3011 4.32908 22.1103 4.46973 21.9697C4.61038 21.829 4.80115 21.75 5.00006 21.75H5.73456C6.03918 21.7499 6.33328 21.6386 6.56161 21.437C6.78994 21.2353 6.93679 20.9573 6.97456 20.655L7.08956 19.74C5.26056 19.72 3.98856 19.672 3.13656 19.625C1.89906 19.556 0.92906 18.6135 0.85306 17.364Z" fill="white"/>
</svg>
