<svg width="24" height="24" viewBox="0 0 24 24" fill="none" xmlns="http://www.w3.org/2000/svg">
<path d="M4.8 11L6.7 9.1C6.88333 8.91667 6.975 8.68333 6.975 8.4C6.975 8.11667 6.88333 7.88333 6.7 7.7C6.51667 7.51667 6.28333 7.425 6 7.425C5.71667 7.425 5.48333 7.51667 5.3 7.7L2.7 10.3C2.5 10.5 2.4 10.7333 2.4 11C2.4 11.2667 2.5 11.5 2.7 11.7L5.3 14.3C5.48333 14.4833 5.71667 14.575 6 14.575C6.28333 14.575 6.51667 14.4833 6.7 14.3C6.88333 14.1167 6.975 13.8833 6.975 13.6C6.975 13.3167 6.88333 13.0833 6.7 12.9L4.8 11ZM19.2 11L17.3 12.9C17.1167 13.0833 17.025 13.3167 17.025 13.6C17.025 13.8833 17.1167 14.1167 17.3 14.3C17.4833 14.4833 17.7167 14.575 18 14.575C18.2833 14.575 18.5167 14.4833 18.7 14.3L21.3 11.7C21.5 11.5 21.6 11.2667 21.6 11C21.6 10.7333 21.5 10.5 21.3 10.3L18.7 7.7C18.5167 7.51667 18.2833 7.425 18 7.425C17.7167 7.425 17.4833 7.51667 17.3 7.7C17.1167 7.88333 17.025 8.11667 17.025 8.4C17.025 8.68333 17.1167 8.91667 17.3 9.1L19.2 11ZM9 21C8.71667 21 8.47933 20.904 8.288 20.712C8.09667 20.52 8.00067 20.2827 8 20V19H4C3.45 19 2.97933 18.8043 2.588 18.413C2.19667 18.0217 2.00067 17.5507 2 17V5C2 4.45 2.196 3.97933 2.588 3.588C2.98 3.19667 3.45067 3.00067 4 3H20C20.55 3 21.021 3.196 21.413 3.588C21.805 3.98 22.0007 4.45067 22 5V17C22 17.55 21.8043 18.021 21.413 18.413C21.0217 18.805 20.5507 19.0007 20 19H16V20C16 20.2833 15.904 20.521 15.712 20.713C15.52 20.905 15.2827 21.0007 15 21H9Z" fill="white"/>
</svg>
