<svg width="24" height="24" viewBox="0 0 24 24" fill="none" xmlns="http://www.w3.org/2000/svg">
<path fill-rule="evenodd" clip-rule="evenodd" d="M10.753 2.19688C10.4792 2.10551 10.189 2.07446 9.90207 2.10588C9.61518 2.1373 9.33849 2.23043 9.091 2.37888L4.971 4.85088C4.67485 5.02858 4.42976 5.27993 4.25959 5.58048C4.08943 5.88102 4 6.22051 4 6.56588V19.9999H3C2.73478 19.9999 2.48043 20.1052 2.29289 20.2928C2.10536 20.4803 2 20.7347 2 20.9999C2 21.2651 2.10536 21.5195 2.29289 21.707C2.48043 21.8945 2.73478 21.9999 3 21.9999H21C21.2652 21.9999 21.5196 21.8945 21.7071 21.707C21.8946 21.5195 22 21.2651 22 20.9999C22 20.7347 21.8946 20.4803 21.7071 20.2928C21.5196 20.1052 21.2652 19.9999 21 19.9999H20V6.71988C19.9998 6.30042 19.8676 5.89165 19.6223 5.5514C19.377 5.21115 19.0309 4.95664 18.633 4.82388L10.753 2.19688ZM9 4.76688L6 6.56688V19.9999H9V4.76588V4.76688Z" fill="white"/>
</svg>
